<svg width="94" height="93" viewBox="0 0 94 93" fill="none" xmlns="http://www.w3.org/2000/svg">
<path d="M0 92.8191V93H93.0259V92.8191V0H0V92.8191ZM61.6038 33.3601L72.3276 33.4118C73.5679 33.4118 74.6791 33.6185 75.6869 34.0061C76.6688 34.3937 77.5215 34.9622 78.1934 35.6599C78.8652 36.3576 79.4079 37.1845 79.7697 38.1148C80.1314 39.045 80.3382 40.0786 80.3382 41.1381C80.3382 42.8953 79.873 44.2131 78.8136 45.5827C77.8058 46.8747 76.3846 47.7274 74.6016 48.1667L73.9039 48.3218L79.9764 59.6399H75.9711L70.3379 48.8127L70.2345 48.606H65.1698V59.6141H61.6038V33.3601ZM39.5101 33.3859H55.2987V36.616H43.0503V41.3965H54.0842V44.239H43.0503V49.0453H54.1359L54.0842 51.9911H42.9728L43.0503 56.4098H55.2987V59.6399H39.5101V33.3859ZM13.2045 33.3859H16.7447V44.9625H29.1998V33.3859H32.7658V59.6141H29.1998V48.2184H16.7188V59.6141H13.2045V33.3859Z" fill="#C93B2B"/>
<path d="M75.3014 44.342C76.335 43.4117 76.7484 42.4815 76.7484 41.1378C76.7484 39.6907 76.2575 38.5279 75.3014 37.6751C74.3453 36.8224 73.0791 36.4089 71.5028 36.4089H65.1719V45.634H71.5028C73.0532 45.634 74.3453 45.1947 75.3014 44.342Z" fill="#C93B2B"/>
<path d="M16.7223 48.2188H29.2033V59.6145H32.7693V33.3864H29.2033V44.9629H16.7223V33.3864H13.208V59.6145H16.7223V48.2188Z" fill="white"/>
<path d="M55.3012 56.3844H43.0528L42.9753 51.9915H54.0867L54.1126 49.0457H43.0528V44.2394H54.0867V41.3969H43.0528V36.6164H55.3012V33.3864H39.5127V59.6145H55.3012V56.3844Z" fill="white"/>
<path d="M65.1744 48.6064H70.2391L70.3425 48.8131L75.9757 59.6403H79.981L73.9085 48.3221L74.6062 48.1671C76.3892 47.7278 77.8104 46.8751 78.8182 45.583C79.8776 44.2393 80.3428 42.8956 80.3428 41.1385C80.3428 40.0532 80.1619 39.0454 79.7743 38.1151C79.4125 37.1849 78.8699 36.358 78.198 35.6603C77.5262 34.9626 76.6734 34.4199 75.6915 34.0065C74.6837 33.6189 73.5726 33.4122 72.3322 33.4122L61.6084 33.3605V59.5886H65.1744V48.6064ZM65.1744 36.4097H71.5053C73.0816 36.4097 74.3478 36.8489 75.3039 37.6758C76.26 38.5286 76.7509 39.7172 76.7509 41.1385C76.7509 42.4822 76.3375 43.4124 75.3039 44.3427C74.3478 45.1954 73.0816 45.6089 71.5053 45.6089H65.1744V36.4097Z" fill="white"/>
</svg>